<svg width="167" height="43" viewBox="0 0 167 43" fill="none" xmlns="http://www.w3.org/2000/svg">
<path d="M166.386 16.7388L165.804 20.1761H156.552L157.134 16.7388H166.386ZM159.645 13.2252H164.314L162.061 26.7928C162.016 27.0792 162.023 27.3116 162.08 27.4898C162.144 27.6616 162.258 27.7858 162.424 27.8622C162.596 27.9322 162.806 27.9672 163.054 27.9672C163.226 27.9672 163.417 27.9481 163.627 27.9099C163.837 27.8717 163.996 27.8431 164.104 27.824L164.257 31.1944C164.009 31.2644 163.675 31.344 163.255 31.4331C162.841 31.5286 162.357 31.589 161.803 31.6145C160.683 31.659 159.757 31.5286 159.025 31.223C158.299 30.9111 157.787 30.4274 157.488 29.7717C157.195 29.1161 157.137 28.295 157.316 27.3084L159.645 13.2252Z" fill="#FFFDFD"/>
<path d="M154.664 21.217L150.453 21.3316C150.46 21.0197 150.39 20.7459 150.243 20.5104C150.097 20.2685 149.89 20.0808 149.623 19.9471C149.355 19.8134 149.037 19.7466 148.668 19.7466C148.07 19.7466 147.532 19.8803 147.054 20.1476C146.583 20.415 146.319 20.7619 146.262 21.1883C146.217 21.4175 146.281 21.618 146.453 21.7899C146.625 21.9554 147.007 22.1018 147.599 22.2291L150.348 22.7637C151.761 23.0438 152.786 23.5308 153.423 24.2246C154.066 24.912 154.295 25.8223 154.11 26.9553C153.945 27.9228 153.518 28.7599 152.831 29.4664C152.15 30.173 151.281 30.7204 150.224 31.1087C149.174 31.4906 148.012 31.6815 146.739 31.6815C144.588 31.6815 142.965 31.2487 141.87 30.383C140.781 29.511 140.272 28.3557 140.342 26.9171L144.887 26.8025C144.906 27.3436 145.087 27.751 145.431 28.0247C145.781 28.292 146.255 28.432 146.854 28.4448C147.509 28.4575 148.076 28.3207 148.553 28.0342C149.031 27.7478 149.298 27.3945 149.355 26.9744C149.394 26.7007 149.301 26.4874 149.078 26.3347C148.862 26.1819 148.458 26.0451 147.866 25.9241L145.383 25.4372C143.958 25.1635 142.926 24.6479 142.29 23.8904C141.66 23.1266 141.443 22.1527 141.641 20.9687C141.806 20.0267 142.194 19.2278 142.805 18.5722C143.423 17.9102 144.228 17.4074 145.221 17.0636C146.22 16.7199 147.36 16.548 148.639 16.548C150.689 16.548 152.236 16.965 153.28 17.7988C154.33 18.6263 154.791 19.7657 154.664 21.217Z" fill="#FFFDFD"/>
<path d="M132.558 31.4044L135.002 16.7388H139.671L137.227 31.4044H132.558ZM137.666 15.0202C137.004 15.0202 136.466 14.8006 136.053 14.3614C135.639 13.9222 135.476 13.397 135.566 12.7859C135.655 12.1685 135.967 11.6434 136.501 11.2105C137.036 10.7777 137.631 10.5613 138.287 10.5613C138.949 10.5613 139.48 10.7777 139.881 11.2105C140.289 11.6434 140.448 12.1685 140.359 12.7859C140.282 13.397 139.977 13.9222 139.442 14.3614C138.914 14.8006 138.322 15.0202 137.666 15.0202Z" fill="#FFFDFD"/>
<path d="M132.833 11.8503L129.586 31.4045H124.917L128.164 11.8503H132.833Z" fill="#FFFDFD"/>
<path d="M113.794 27.5567L114.739 21.9903H115.379L120.401 16.7389H125.691L118.32 24.2627H117.088L113.794 27.5567ZM108.953 31.4045L112.199 11.8503H116.868L113.622 31.4045H108.953ZM118.062 31.4045L115.236 25.3129L118.873 21.9998L123.456 31.4045H118.062Z" fill="#FFFDFD"/>
<path d="M99.7178 31.6815C98.171 31.6815 96.8948 31.3633 95.8891 30.7267C94.8897 30.0902 94.1895 29.2054 93.7885 28.0724C93.3875 26.933 93.3143 25.6154 93.5689 24.1196C93.8108 22.6173 94.3232 21.2997 95.1062 20.1667C95.8891 19.0273 96.8884 18.1394 98.1042 17.5028C99.32 16.8663 100.695 16.548 102.229 16.548C103.585 16.548 104.724 16.7931 105.647 17.2832C106.576 17.7734 107.248 18.4672 107.662 19.3647C108.082 20.2558 108.206 21.3029 108.034 22.506H103.671C103.709 21.7612 103.556 21.1756 103.212 20.7491C102.869 20.3163 102.369 20.0999 101.713 20.0999C101.16 20.0999 100.65 20.2526 100.186 20.5582C99.7274 20.8573 99.3359 21.3029 99.0113 21.8949C98.693 22.4805 98.4638 23.2061 98.3238 24.0718C98.1838 24.9375 98.1742 25.6695 98.2952 26.2678C98.4225 26.8598 98.6612 27.3086 99.0113 27.6141C99.3677 27.9133 99.8197 28.0629 100.367 28.0629C100.8 28.0629 101.201 27.9706 101.57 27.786C101.939 27.6014 102.261 27.3308 102.534 26.9744C102.808 26.6116 103.021 26.1724 103.174 25.6568H107.528C107.28 26.8725 106.799 27.9324 106.086 28.8362C105.38 29.7337 104.485 30.4339 103.403 30.9368C102.321 31.4333 101.093 31.6815 99.7178 31.6815Z" fill="#FFFDFD"/>
<path d="M81.2518 31.6529C80.3225 31.6529 79.5204 31.4969 78.8457 31.185C78.1774 30.8668 77.6872 30.3862 77.3753 29.7433C77.0698 29.1004 76.9966 28.2984 77.1557 27.3372C77.2958 26.5225 77.5536 25.8382 77.9291 25.2844C78.311 24.7243 78.7789 24.2691 79.3327 23.919C79.8928 23.569 80.5166 23.3016 81.2041 23.117C81.8915 22.9324 82.6108 22.8083 83.3619 22.7447C84.2021 22.6683 84.8832 22.5855 85.4052 22.4964C85.9335 22.4073 86.3281 22.2832 86.5891 22.124C86.8501 21.9585 87.0092 21.7294 87.0665 21.4366V21.3888C87.1429 20.8987 87.0379 20.52 86.7514 20.2526C86.465 19.9853 86.0353 19.8516 85.4624 19.8516C84.8514 19.8516 84.3294 19.9853 83.8966 20.2526C83.4637 20.52 83.1614 20.8892 82.9895 21.3602L78.712 21.2074C78.9794 20.3163 79.4377 19.5206 80.087 18.8204C80.7362 18.1139 81.5605 17.5601 82.5599 17.1591C83.5656 16.7517 84.7273 16.548 86.0449 16.548C86.9742 16.548 87.8144 16.6594 88.5655 16.8822C89.3166 17.0986 89.95 17.4169 90.4656 17.837C90.9875 18.2508 91.3599 18.76 91.5827 19.3647C91.8055 19.9694 91.8532 20.66 91.7259 21.4366L90.055 31.4046H85.663L86.0067 29.3614H85.8921C85.5484 29.8579 85.1442 30.278 84.6795 30.6217C84.2212 30.9654 83.7056 31.2232 83.1327 31.3951C82.5599 31.567 81.9329 31.6529 81.2518 31.6529ZM83.2187 28.5975C83.7088 28.5975 84.1735 28.4957 84.6127 28.292C85.0519 28.0883 85.4211 27.8082 85.7202 27.4518C86.0258 27.089 86.2199 26.6689 86.3027 26.1915L86.5223 24.7975C86.3886 24.8675 86.2199 24.9311 86.0162 24.9884C85.8125 25.0457 85.5961 25.0998 85.367 25.1507C85.1378 25.1953 84.9023 25.2398 84.6604 25.2844C84.4249 25.3226 84.1989 25.3576 83.9825 25.3894C83.5242 25.4594 83.1264 25.5677 82.789 25.7141C82.4517 25.8605 82.1811 26.0514 81.9774 26.2869C81.7801 26.5161 81.6592 26.7898 81.6146 27.1081C81.5382 27.5855 81.6496 27.9546 81.9488 28.2156C82.248 28.4702 82.6713 28.5975 83.2187 28.5975Z" fill="#FFFDFD"/>
<path d="M77.4305 11.8503L74.1842 31.4045H69.5153L72.7616 11.8503H77.4305Z" fill="#FFFDFD"/>
<path d="M51.6605 31.4045L54.9068 11.8503H63.0608C64.5248 11.8503 65.7183 12.0572 66.6413 12.471C67.5642 12.8847 68.2135 13.4639 68.5891 14.2087C68.971 14.9534 69.0792 15.8159 68.9137 16.7962C68.78 17.5346 68.5063 18.1965 68.0926 18.7821C67.6852 19.3614 67.176 19.8452 66.5649 20.2334C65.9538 20.6154 65.2791 20.8827 64.5407 21.0355L64.5025 21.2264C65.2918 21.2582 65.9888 21.4683 66.5935 21.8566C67.2046 22.2449 67.6565 22.7891 67.9493 23.4893C68.2421 24.1831 68.309 24.9979 68.1498 25.9336C67.978 26.9838 67.5547 27.9227 66.88 28.7502C66.2116 29.5713 65.33 30.2206 64.2352 30.698C63.1404 31.169 61.8737 31.4045 60.4351 31.4045H51.6605ZM57.036 27.5949H59.9577C60.9698 27.5949 61.7527 27.4008 62.3065 27.0125C62.8667 26.6178 63.1976 26.0768 63.2995 25.3893C63.3822 24.8865 63.3377 24.4536 63.1658 24.0908C62.994 23.7216 62.7075 23.4384 62.3065 23.241C61.9055 23.0373 61.3995 22.9355 60.7884 22.9355H57.7808L57.036 27.5949ZM58.3059 19.8897H60.9316C61.4408 19.8897 61.9087 19.8038 62.3351 19.6319C62.768 19.4601 63.1244 19.2118 63.4045 18.8872C63.691 18.5625 63.8692 18.1711 63.9392 17.7128C64.0474 17.0572 63.8978 16.5416 63.4904 16.166C63.0831 15.7905 62.4879 15.6027 61.705 15.6027H59.0125L58.3059 19.8897Z" fill="#FFFDFD"/>
<path d="M0.61377 43L43.6138 0H51.7863L32.4237 20.3684L45.1225 31.9357H34.0582L27.143 24.769L8.40909 43H0.61377Z" fill="#D9D9D9"/>
<path d="M0.61377 43L43.6138 0H51.7863L32.4237 20.3684L45.1225 31.9357H34.0582L27.143 24.769L8.40909 43H0.61377Z" fill="url(#paint0_linear_1_113)"/>
<path d="M21.8623 18.3567L10.4208 6.41229L19.3477 7.29241L26.3886 14.2076L21.8623 18.3567Z" fill="#D9D9D9"/>
<defs>
<linearGradient id="paint0_linear_1_113" x1="27.3233" y1="1.73936e-06" x2="27.3233" y2="43" gradientUnits="userSpaceOnUse">
<stop stop-color="#492EB4"/>
<stop offset="1" stop-color="#CFC4FF"/>
</linearGradient>
</defs>
</svg>
